<?xml version="1.0"?>
<svg xmlns="http://www.w3.org/2000/svg" width="512" height="512">
  <path d="M 248,18 L 283,170 L 298,163 L 264,14 Z M 288,194 L 304,262 L 317,246 L 303,187 Z M 311,292 L 352,474 L 368,470 L 324,276 Z M 366,467 L 269,345 L 259,358 L 354,477 Z M 253,326 L 210,271 L 206,291 L 243,338 Z M 191,247 L 74,101 L 62,111 L 186,267 Z M 65,113 L 206,181 L 210,165 L 71,99 Z M 228,192 L 291,222 L 286,202 L 232,176 Z M 318,235 L 487,316 L 493,302 L 314,215 Z M 490,301 L 333,301 L 337,317 L 490,317 Z M 309,301 L 239,301 L 252,317 L 312,317 Z M 208,301 L 22,301 L 22,317 L 221,317 Z M 25,316 L 166,248 L 156,236 L 19,302 Z M 188,238 L 251,208 L 233,199 L 178,225 Z M 279,194 L 447,113 L 441,99 L 261,185 Z M 438,101 L 340,224 L 355,231 L 450,111 Z M 325,243 L 281,297 L 302,297 L 339,250 Z M 262,321 L 146,467 L 158,477 L 283,321 Z M 160,474 L 195,321 L 178,321 L 144,470 Z M 200,297 L 216,229 L 197,238 L 184,297 Z M 222,199 L 264,18 L 248,14 L 204,208 Z" stroke="none" fill="#96c" />
  <path d="M 256,8 A 120,120 1 0 1 256,504 A 120,120 1 0 1 256,8 M 256,24 A 120,120 1 1 0 256,488 A 120,120 1 1 0 256,24 Z" stroke="none" fill="#96c" />
</svg>